HIERARCHY
ROOT SpineBase
{
  OFFSET 0.000000 0.000000 0.000000
  CHANNELS 6 Xposition Yposition Zposition Zrotation Xrotation Yrotation
  JOINT SpineMid
  {
    OFFSET 0.000000 31.636196 0.000000
    CHANNELS 3 Zrotation Xrotation Yrotation
    JOINT SpineShoulder
    {
      OFFSET -0.149836 23.987530 -0.766926
      CHANNELS 3 Zrotation Xrotation Yrotation
      JOINT Neck
      {
        OFFSET -0.159571 8.070999 -0.557106
        CHANNELS 3 Zrotation Xrotation Yrotation
        JOINT Head
        {
          OFFSET -1.639163 9.102023 5.606140
          CHANNELS 3 Zrotation Xrotation Yrotation
          End Site
          {
            OFFSET 0 0 0
          }
        }
      }
      JOINT ShoulderLeft
      {
        OFFSET -11.718484 -9.315415 -13.995710
        CHANNELS 3 Zrotation Xrotation Yrotation
        JOINT ElbowLeft
        {
          OFFSET -1.453482 -30.671836 -0.554340
          CHANNELS 3 Zrotation Xrotation Yrotation
          JOINT WristLeft
          {
            OFFSET -0.141767 -28.447512 6.321951
            CHANNELS 3 Zrotation Xrotation Yrotation
            JOINT HandLeft
            {
              OFFSET 1.698571 -1.972950 1.658154
              CHANNELS 3 Zrotation Xrotation Yrotation
              JOINT HandTipLeft
              {
                OFFSET -1.458907 -8.853955 3.451359
                CHANNELS 3 Zrotation Xrotation Yrotation
                End Site
                {
                  OFFSET 0 0 0
                }
              }
              JOINT ThumbLeft
              {
                OFFSET 2.350962 -2.294306 -3.279719
                CHANNELS 3 Zrotation Xrotation Yrotation
                End Site
                {
                  OFFSET 0 0 0
                }
              }
            }
          }
        }
      }
      JOINT ShoulderRight
      {
        OFFSET -1.371537 -2.860065 -11.643780
        CHANNELS 3 Zrotation Xrotation Yrotation
        JOINT ElbowRight
        {
          OFFSET -9.819983 -23.549831 -5.559668
          CHANNELS 3 Zrotation Xrotation Yrotation
          JOINT WristRight
          {
            OFFSET -5.440645 -29.824470 7.712093
            CHANNELS 3 Zrotation Xrotation Yrotation
            JOINT HandRight
            {
              OFFSET 0.109922 -6.896388 1.877229
              CHANNELS 3 Zrotation Xrotation Yrotation
              JOINT HandTipRight
              {
                OFFSET -0.699174 -6.292216 1.445807
                CHANNELS 3 Zrotation Xrotation Yrotation
                End Site
                {
                  OFFSET 0 0 0
                }
              }
              JOINT ThumbRight
              {
                OFFSET 4.166142 -0.674342 -2.490411
                CHANNELS 3 Zrotation Xrotation Yrotation
                End Site
                {
                  OFFSET 0 0 0
                }
              }
            }
          }
        }
      }
    }
  }
  JOINT HipLeft
  {
    OFFSET -6.411876 2.397320 -3.917083
    CHANNELS 3 Zrotation Xrotation Yrotation
    JOINT KneeLeft
    {
      OFFSET 1.907570 -42.598596 1.384510
      CHANNELS 3 Zrotation Xrotation Yrotation
      JOINT AnkleLeft
      {
        OFFSET 9.167217 -39.542071 5.937059
        CHANNELS 3 Zrotation Xrotation Yrotation
        JOINT FootLeft
        {
          OFFSET 1.393088 -2.752716 -12.719745
          CHANNELS 3 Zrotation Xrotation Yrotation
          End Site
          {
            OFFSET 0 0 0
          }
        }
      }
    }
  }
  JOINT HipRight
  {
    OFFSET 4.121634 0.116628 -3.213734
    CHANNELS 3 Zrotation Xrotation Yrotation
    JOINT KneeRight
    {
      OFFSET 6.198693 -41.242212 12.568956
      CHANNELS 3 Zrotation Xrotation Yrotation
      JOINT AnkleRight
      {
        OFFSET -1.690829 -35.233799 1.822244
        CHANNELS 3 Zrotation Xrotation Yrotation
        JOINT FootRight
        {
          OFFSET -11.507477 -2.164355 -5.821802
          CHANNELS 3 Zrotation Xrotation Yrotation
          End Site
          {
            OFFSET 0 0 0
          }
        }
      }
    }
  }
}
MOTION
Frames: 6
Frame Time: 0.033333
99.373412 84.308648 346.198977 0.090914 0.510994 -28.930875 0.459700 0.514206 28.959472 0.093366 -0.155208 0.042610 -3.069695 -0.850579 1.231749 0.000000 0.000000 0.000000 -3.835539 -2.880847 -0.000940 3.001578 2.294508 -0.223327 -15.002844 19.786658 9.647155 14.139485 -25.288145 -2.655961 0.000000 0.000000 0.000000 0.000000 0.000000 0.000000 -14.299180 -1.259013 3.041416 19.496533 4.823175 -3.041612 -0.057400 -5.382564 1.279327 -13.507013 5.415852 -3.518816 0.000000 0.000000 0.000000 0.000000 0.000000 0.000000 8.034609 -0.067760 29.045887 -11.995624 10.778057 1.753362 5.268209 -7.968541 -3.531032 0.000000 0.000000 0.000000 -4.885596 7.764342 30.622585 5.682071 -8.815744 -0.233055 -8.697047 0.708357 -0.070234 0.000000 0.000000 0.000000
99.247619 84.113557 346.332478 0.213909 0.595203 -28.839446 0.558221 0.475681 28.873928 0.081040 -0.186583 0.048689 -2.330794 -0.316473 0.758387 0.000000 0.000000 0.000000 -4.217470 -2.922461 -0.012892 3.205201 2.364002 -0.236359 -16.618072 21.823572 11.446752 16.057686 -27.926677 -2.460327 0.000000 0.000000 0.000000 0.000000 0.000000 0.000000 -14.789842 -0.233514 2.813148 19.448524 3.650643 -2.483014 1.070585 -6.087732 1.636050 -12.530865 8.992799 -3.416873 0.000000 0.000000 0.000000 0.000000 0.000000 0.000000 8.347664 -0.127937 28.976628 -12.356412 10.719908 1.727343 5.192222 -7.756662 -3.165505 0.000000 0.000000 0.000000 -5.236595 7.897708 30.565804 6.362765 -10.493826 0.049376 -9.563049 2.540357 -1.552929 0.000000 0.000000 0.000000
99.218078 84.315593 346.505966 0.518419 0.550551 -26.971813 0.500472 0.443926 27.011503 0.107912 -0.229722 0.059079 -1.802010 0.196534 0.342869 0.000000 0.000000 0.000000 -5.777184 -4.135497 -0.030316 4.509469 3.637762 -0.397777 -10.818607 24.875267 20.290036 6.155689 -29.210834 -13.697500 0.000000 0.000000 0.000000 0.000000 0.000000 0.000000 -14.741155 1.078322 2.387798 18.092772 1.482175 -1.646823 3.635295 -4.030823 2.135235 -15.006741 8.787742 -4.166279 0.000000 0.000000 0.000000 0.000000 0.000000 0.000000 7.513335 -0.036776 27.123559 -12.794637 9.894460 1.522592 5.958960 -7.557528 -3.061311 0.000000 0.000000 0.000000 -6.639449 7.965826 28.481738 8.817543 -11.859249 0.885015 -10.229556 3.054942 -1.443325 0.000000 0.000000 0.000000
99.251871 84.785358 346.718135 0.917040 0.464544 -23.824048 0.347564 0.360260 23.867831 0.074954 -0.207060 0.064145 -1.124468 0.596718 -0.130991 0.000000 0.000000 0.000000 -6.320984 -5.344708 -0.040445 4.878661 4.884940 -0.528736 -7.527099 29.305831 28.981944 -1.346739 -30.402419 -23.842629 0.000000 0.000000 0.000000 0.000000 0.000000 0.000000 -13.267869 4.216650 1.079335 15.378092 -2.630188 0.464876 5.000713 -4.641846 2.199556 -13.454637 12.591032 -3.731980 0.000000 0.000000 0.000000 0.000000 0.000000 0.000000 6.280327 0.113404 23.986588 -12.582406 8.664932 1.228608 6.258619 -7.196205 -2.804282 0.000000 0.000000 0.000000 -7.139586 7.988068 25.141198 11.173377 -13.237216 1.732279 -11.291635 4.267566 -1.630397 0.000000 0.000000 0.000000
99.277525 85.520217 346.925164 1.301908 0.366690 -19.885366 0.194033 0.273306 19.933369 0.052715 -0.156846 0.069021 -0.585760 1.098417 -0.500888 0.000000 0.000000 0.000000 -6.115247 -6.649977 -0.024499 4.508156 6.234006 -0.623394 -9.764247 34.567032 37.027220 0.563851 -32.957423 -27.418070 0.000000 0.000000 0.000000 0.000000 0.000000 0.000000 -8.966030 8.815544 -1.620254 9.943304 -8.686998 3.539411 3.435011 -6.143896 1.190876 -13.526332 13.859136 -2.451178 0.000000 0.000000 0.000000 0.000000 0.000000 0.000000 5.007372 0.357762 20.050776 -12.311294 7.549206 0.969692 6.594538 -7.023073 -2.682981 0.000000 0.000000 0.000000 -7.463080 8.108056 20.999136 12.090618 -13.217531 2.059405 -10.735911 3.782419 -0.728813 0.000000 0.000000 0.000000
99.527716 86.354473 347.145505 1.945890 0.199878 -15.140522 -0.124379 0.182281 15.196113 -0.055164 -0.123394 0.070450 -0.434829 1.581693 -0.658862 0.000000 0.000000 0.000000 -5.424076 -7.839399 0.032417 3.640788 7.541034 -0.663917 -13.253522 38.823930 44.443927 0.489074 -34.930239 -32.017336 0.000000 0.000000 0.000000 0.000000 0.000000 0.000000 -5.474995 10.851500 -3.458196 6.101176 -12.463551 5.136712 3.727993 -3.465844 0.738909 -13.509049 13.238430 -2.577795 0.000000 0.000000 0.000000 0.000000 0.000000 0.000000 3.193721 0.781430 15.297658 -12.173003 6.922478 0.836944 7.378643 -7.504681 -2.614547 0.000000 0.000000 0.000000 -7.991699 8.271018 16.007292 13.141493 -13.192107 2.440809 -11.204694 4.190232 -0.861892 0.000000 0.000000 0.000000
